<svg xmlns="http://www.w3.org/2000/svg" version="1.1" xmlns:xlink="http://www.w3.org/1999/xlink" xmlns:svgjs="http://svgjs.com/svgjs" width="102" height="102"><svg width="102" height="102" viewBox="0 0 102 102" fill="none" xmlns="http://www.w3.org/2000/svg">
<path d="M0.599998 22.2C0.599998 16.4713 2.87571 10.9773 6.92649 6.92649C10.9773 2.87571 16.4713 0.599998 22.2 0.599998H79.8C85.5287 0.599998 91.0227 2.87571 95.0735 6.92649C99.1243 10.9773 101.4 16.4713 101.4 22.2V79.8C101.4 85.5287 99.1243 91.0227 95.0735 95.0735C91.0227 99.1243 85.5287 101.4 79.8 101.4H22.2C16.4713 101.4 10.9773 99.1243 6.92649 95.0735C2.87571 91.0227 0.599998 85.5287 0.599998 79.8V22.2ZM22.2 7.8C18.3809 7.8 14.7182 9.31714 12.0177 12.0177C9.31714 14.7182 7.8 18.3809 7.8 22.2V29.8176L47.4 29.436V7.8H22.2ZM54.6 7.8V65.4H79.8C79.8 65.4 85.7647 66 89.9823 63C94.2 60 94.2 54 94.2 54V22.2C94.2 18.3809 92.6829 14.7182 89.9823 12.0177C87.2818 9.31714 83.6191 7.8 79.8 7.8H54.6ZM94.2 72.6H54.6V94.2H79.8C83.6191 94.2 87.2818 92.6829 89.9823 89.9823C92.6829 87.2818 94.2 83.6191 94.2 79.8V72.6ZM47.4 94.2V36.636L7.8 37.0176V79.8C7.8 83.6191 9.31714 87.2818 12.0177 89.9823C14.7182 92.6829 18.3809 94.2 22.2 94.2H47.4Z" fill="black"></path>
</svg><style>@media (prefers-color-scheme: light) { :root { filter: none; } }
@media (prefers-color-scheme: dark) { :root { filter: invert(100%); } }
</style></svg>