<?xml version="1.0" standalone="no"?>
<!DOCTYPE svg PUBLIC "-//W3C//DTD SVG 20010904//EN"
 "http://www.w3.org/TR/2001/REC-SVG-20010904/DTD/svg10.dtd">
<svg version="1.0" xmlns="http://www.w3.org/2000/svg"
 width="611.000000pt" height="611.000000pt" viewBox="0 0 611.000000 611.000000"
 preserveAspectRatio="xMidYMid meet">
<metadata>
Created by potrace 1.14, written by Peter Selinger 2001-2017
</metadata>
<g transform="translate(0.000000,611.000000) scale(0.100000,-0.100000)"
fill="#000000" stroke="none">
<path d="M2965 6069 c-1126 -4 -1635 -9 -1670 -17 -108 -24 -183 -44 -250 -67
-83 -28 -285 -133 -372 -192 -185 -125 -411 -400 -486 -593 -38 -95 -53 -145
-75 -245 -49 -218 -47 -136 -47 -1955 l0 -1715 32 -126 c75 -295 170 -473 361
-672 180 -186 375 -305 622 -380 254 -77 105 -72 1995 -72 l1690 0 142 37
c317 83 524 193 725 387 148 142 250 299 333 515 85 220 86 234 94 866 4 305
6 1082 5 1725 -2 1139 -2 1173 -23 1280 -42 223 -139 461 -244 601 -172 230
-333 371 -547 479 -185 95 -326 132 -530 141 -63 2 -119 5 -125 7 -5 1 -739
-1 -1630 -4z m1836 -294 c232 -40 421 -140 612 -324 143 -138 251 -315 305
-497 60 -204 57 -93 57 -1919 l0 -1680 -42 -160 c-44 -165 -106 -307 -179
-406 -42 -58 -185 -195 -262 -252 -127 -93 -309 -169 -484 -202 -73 -13 -283
-15 -1783 -12 l-1700 3 -80 22 c-318 89 -490 194 -655 399 -114 141 -196 346
-225 558 -25 181 -27 431 -17 2020 l10 1460 26 118 c20 88 41 148 82 230 71
145 101 187 229 320 149 156 424 294 650 326 33 4 805 9 1715 9 1403 1 1668
-1 1741 -13z"/>
<path d="M4367 5506 c-21 -8 -56 -26 -77 -41 -40 -28 -100 -107 -100 -132 0
-10 -25 -13 -110 -13 -106 0 -110 -1 -142 -29 l-33 -29 -166 -3 -166 -4 -37
33 c-36 31 -38 32 -135 32 l-98 0 -23 51 c-41 88 -123 138 -223 139 -32 0 -73
-6 -91 -14 -45 -19 -105 -80 -128 -133 l-19 -43 -90 0 c-92 0 -117 -7 -156
-42 -19 -18 -39 -20 -185 -23 l-163 -3 -38 34 c-41 38 -36 37 -162 34 l-90 -1
-14 36 c-17 47 -81 111 -134 136 -55 25 -130 24 -182 -1 -66 -32 -122 -86
-141 -136 l-17 -46 -71 6 c-80 7 -128 -3 -162 -35 -21 -19 -35 -22 -146 -23
-112 -1 -127 -3 -173 -28 -66 -34 -137 -111 -161 -173 -18 -48 -19 -91 -19
-1255 l0 -1205 29 -62 c48 -104 129 -165 254 -192 37 -8 336 -11 1010 -11
l957 0 0 -450 0 -450 -360 -1 c-198 0 -419 -4 -492 -8 -122 -7 -136 -10 -172
-35 -76 -53 -76 -52 -79 -321 -3 -269 0 -286 68 -333 l33 -22 1082 0 1082 0
41 30 c23 16 48 42 55 57 18 35 32 309 22 430 -7 80 -10 88 -44 126 -70 78
-57 77 -578 77 l-463 0 0 453 0 452 983 1 c1135 1 1057 -5 1149 92 31 32 68
83 84 113 27 52 28 61 35 254 4 110 8 628 8 1150 1 1017 0 1060 -48 1154 -28
54 -88 114 -143 142 -50 25 -179 36 -247 21 -41 -10 -45 -9 -88 24 -43 33 -47
34 -136 34 l-92 0 -19 45 c-24 59 -94 121 -159 140 -61 18 -71 18 -120 1z
m-2592 -197 c56 -62 42 -139 -31 -174 -47 -22 -101 -8 -138 36 -56 66 -19 154
73 179 38 10 57 2 96 -41z m1356 13 c48 -49 56 -80 32 -129 -24 -50 -72 -77
-120 -68 -41 7 -89 50 -98 88 -15 56 62 147 123 147 15 0 39 -15 63 -38z
m1339 23 c85 -44 92 -142 14 -204 -34 -26 -57 -26 -104 0 -84 48 -92 133 -16
189 44 33 65 36 106 15z m246 -205 l34 0 0 -310 0 -310 -335 0 -335 0 0 310 0
310 60 0 60 0 0 -32 c0 -83 93 -148 209 -148 94 0 136 15 186 64 31 32 45 54
50 85 5 32 11 41 22 37 8 -3 30 -6 49 -6z m-3280 -10 c27 0 32 -4 37 -30 8
-37 67 -103 111 -124 48 -23 169 -21 221 3 56 25 113 85 121 127 7 37 8 37 75
28 l45 -6 1 -304 2 -304 -338 0 -338 0 -6 188 c-4 103 -7 243 -7 311 0 123 0
123 23 117 12 -3 36 -6 53 -6z m1402 -31 c5 -44 43 -94 92 -119 50 -26 195
-28 241 -4 59 30 109 84 115 125 7 42 11 43 74 33 l35 -6 0 -304 0 -304 -332
0 -333 0 0 310 0 310 53 -3 c51 -3 52 -4 55 -38z m-1648 -359 c4 -179 7 -326
8 -327 1 -1 16 -18 33 -38 l31 -35 453 0 454 0 20 26 c42 53 44 82 38 396 l-7
298 165 0 165 0 0 -315 c0 -334 2 -346 48 -388 18 -17 50 -18 462 -18 496 1
461 -4 499 75 19 38 20 60 19 333 -1 161 1 296 5 300 4 4 77 9 162 11 l155 4
0 -310 c0 -321 3 -347 42 -389 l21 -23 444 0 c426 0 444 1 462 19 47 47 49 59
52 393 l4 318 91 0 c99 0 134 -14 178 -72 20 -28 20 -36 19 -1175 -1 -740 -5
-1157 -11 -1174 -16 -39 -69 -87 -110 -99 -24 -6 -365 -10 -984 -10 l-948 0 0
201 0 201 158 -2 c86 -1 164 -2 173 -1 10 0 32 25 50 53 l34 53 3 382 c3 417
1 433 -54 470 -21 13 -53 19 -130 21 l-102 4 -6 30 c-8 42 -101 131 -152 146
-58 17 -122 15 -169 -7 -46 -21 -111 -88 -131 -136 l-13 -33 -100 -4 c-81 -3
-104 -7 -121 -23 -50 -46 -51 -50 -53 -468 l-2 -392 24 -38 c41 -66 49 -68
235 -65 l166 3 0 -197 0 -196 -957 -4 c-951 -4 -958 -4 -1002 16 -25 12 -58
37 -74 58 l-29 36 -2 1139 c-1 626 2 1152 6 1169 18 70 102 115 208 111 l65
-2 5 -325z m1904 -794 c47 -20 76 -61 76 -108 0 -32 -7 -47 -34 -74 -28 -28
-42 -34 -76 -34 -57 0 -110 50 -110 104 0 48 23 92 58 110 34 19 45 19 86 2z
m-300 -216 c37 0 42 -3 44 -25 3 -45 31 -84 80 -112 41 -25 57 -28 132 -28 62
0 94 5 117 18 59 32 102 77 113 118 l11 39 49 -1 50 -2 0 -303 0 -303 -54 -6
c-59 -8 -592 -3 -599 5 -2 3 -7 141 -9 308 -5 262 -3 302 9 298 8 -4 34 -6 57
-6z m1044 -2490 l212 0 0 -166 0 -165 -982 2 c-541 1 -990 0 -998 -2 -9 -2
-15 3 -14 14 0 9 1 87 2 173 l2 157 783 -6 c430 -4 878 -7 995 -7z"/>
<path d="M4185 4780 c3 -5 8 -10 11 -10 2 0 4 5 4 10 0 6 -5 10 -11 10 -5 0
-7 -4 -4 -10z"/>
<path d="M1557 4841 c-88 -7 -99 -15 -95 -76 l3 -40 227 -3 227 -2 17 25 c20
31 12 70 -19 86 -25 14 -241 20 -360 10z"/>
<path d="M3078 4835 c-2 -3 -56 -9 -118 -14 -113 -9 -130 -16 -130 -51 0 -43
9 -45 229 -45 124 0 214 4 220 10 22 23 23 63 2 84 -18 18 -33 21 -109 21 -49
0 -91 -2 -94 -5z"/>
<path d="M1603 4084 c-60 -29 -121 -93 -129 -133 l-6 -28 -96 -5 c-108 -5
-132 -15 -164 -67 -21 -34 -22 -45 -22 -415 l-1 -381 24 -43 c43 -73 19 -70
506 -73 l438 -3 33 38 c19 22 36 53 39 70 3 17 5 202 3 411 -3 362 -4 381 -23
407 -32 44 -73 58 -172 58 l-88 0 -27 58 c-56 120 -195 167 -315 106z m145
-144 c36 -22 62 -72 62 -119 0 -38 -58 -91 -101 -91 -54 0 -114 43 -124 90 -8
37 26 104 63 124 37 21 61 20 100 -4z m-268 -237 c0 -42 76 -108 140 -122 145
-31 273 15 301 109 12 40 12 40 64 40 l52 0 7 -77 c8 -97 8 -310 -1 -436 l-6
-97 -335 2 -335 3 -4 303 -5 302 61 0 c59 0 61 -1 61 -27z"/>
<path d="M1524 3471 c-52 -13 -54 -17 -54 -105 l0 -83 43 8 c23 4 58 12 77 18
47 15 266 51 312 51 42 0 61 23 56 68 -5 45 -35 52 -228 51 -96 -1 -189 -4
-206 -8z"/>
<path d="M4319 4085 c-56 -29 -115 -92 -124 -134 l-7 -31 -95 0 c-103 0 -132
-10 -168 -58 -19 -26 -20 -45 -23 -412 -2 -212 0 -400 3 -418 3 -18 19 -47 34
-65 l29 -32 443 2 443 2 28 33 c15 18 32 49 38 68 6 21 10 184 10 398 0 391
-1 403 -53 451 -23 21 -39 24 -122 29 l-96 5 -21 44 c-57 121 -206 177 -319
118z m159 -155 c38 -23 65 -79 57 -113 -8 -31 -50 -76 -83 -88 -38 -15 -78 -2
-112 37 -49 57 -40 126 23 164 41 25 74 25 115 0z m270 -497 l-3 -308 -330 0
-330 0 -3 303 -2 302 60 0 60 0 0 -30 c0 -39 56 -101 116 -131 37 -18 58 -21
112 -17 75 6 115 23 173 75 28 26 41 46 45 74 l7 39 48 0 49 0 -2 -307z"/>
<path d="M2904 3460 c-33 -4 -66 -10 -72 -14 -7 -4 -12 -27 -12 -50 0 -55 3
-56 180 -55 187 0 290 12 307 34 15 22 7 65 -15 83 -17 13 -276 15 -388 2z"/>
</g>
</svg>
