<?xml version="1.0" standalone="no"?>
<!DOCTYPE svg PUBLIC "-//W3C//DTD SVG 20010904//EN"
 "http://www.w3.org/TR/2001/REC-SVG-20010904/DTD/svg10.dtd">
<svg version="1.0" xmlns="http://www.w3.org/2000/svg"
 width="700.000000pt" height="700.000000pt" viewBox="0 0 700.000000 700.000000"
 preserveAspectRatio="xMidYMid meet">
<metadata>
Created by potrace 1.14, written by Peter Selinger 2001-2017
</metadata>
<g transform="translate(0.000000,700.000000) scale(0.100000,-0.100000)"
fill="#000000" stroke="none">
<path d="M1398 6955 c-1 -1 -25 -5 -53 -9 -372 -44 -711 -228 -960 -522 -145
-170 -267 -421 -309 -635 -9 -41 -19 -90 -23 -109 -4 -19 -8 -987 -9 -2150 -3
-2266 -4 -2182 46 -2380 117 -457 468 -847 915 -1015 83 -31 246 -72 330 -82
75 -10 4226 -11 4315 -1 309 33 627 183 853 403 224 218 390 530 432 811 4 21
9 50 13 64 10 40 12 4237 1 4310 -5 36 -11 81 -14 100 -20 135 -88 320 -177
480 -100 183 -292 383 -483 505 -140 90 -339 172 -490 201 -11 2 -31 6 -45 9
-14 3 -56 10 -95 14 -62 8 -4238 14 -4247 6z m1853 -560 c3 -285 0 -1407 -3
-1410 -4 -5 -408 -10 -1573 -21 -1132 -10 -1134 -10 -1138 1 -6 18 0 599 7
645 58 378 317 689 671 803 78 26 112 33 205 46 25 3 447 6 938 6 l892 0 1
-70z m2389 56 c272 -50 499 -196 651 -419 83 -121 138 -262 165 -422 10 -57
12 -2353 3 -2400 -4 -19 -10 -48 -13 -65 -34 -200 -144 -382 -290 -481 -51
-35 -168 -88 -236 -108 -155 -44 -187 -45 -1202 -46 -533 0 -968 3 -968 7 -1
10 -1 3879 -1 3918 l1 30 913 -1 c661 0 930 -4 977 -13z m-2390 -2010 c1 -75
1 -3864 1 -3886 -1 -20 -5 -20 -918 -19 -505 1 -927 4 -938 7 -11 2 -40 8 -65
12 -61 10 -202 60 -268 96 -219 117 -398 327 -475 559 -52 156 -50 86 -51
1728 l-1 1522 150 1 c82 0 305 2 495 4 190 2 637 6 995 10 357 3 650 7 651 8
1 1 97 2 213 3 l211 0 0 -45z m3200 -2427 c14 -3 16 -41 14 -291 0 -159 -4
-308 -8 -333 -72 -439 -385 -761 -816 -841 -47 -9 -314 -12 -977 -13 l-913 -1
0 35 c-1 47 -1 1433 -1 1441 1 7 2677 10 2701 3z"/>
</g>
</svg>
